<?xml version="1.0" encoding="utf-8"?>
<!-- Generator: Adobe Illustrator 16.0.0, SVG Export Plug-In . SVG Version: 6.00 Build 0)  -->
<!DOCTYPE svg PUBLIC "-//W3C//DTD SVG 1.1//EN" "http://www.w3.org/Graphics/SVG/1.1/DTD/svg11.dtd">
<svg version="1.1" id="OBJECTS" xmlns="http://www.w3.org/2000/svg" xmlns:xlink="http://www.w3.org/1999/xlink" x="0px" y="0px"
	 width="auto" height="auto" preserveAspectRatio="none" viewBox="0 0 1400 980" enable-background="new 0 0 1400 980" xml:space="preserve">
<g>
	<defs>
		<rect id="SVGID_1_" x="-8" y="-5.5" width="1413" height="993"/>
	</defs>
	<clipPath id="SVGID_2_">
		<use xlink:href="#SVGID_1_"  overflow="visible"/>
	</clipPath>
	<rect x="-8" y="-5.5" clip-path="url(#SVGID_2_)" fill="#EF4136" width="1413" height="993"/>
	<linearGradient id="SVGID_3_" gradientUnits="userSpaceOnUse" x1="698.4995" y1="215.7573" x2="698.4995" y2="793.3085">
		<stop  offset="0" style="stop-color:#FFAC94;stop-opacity:0"/>
		<stop  offset="1" style="stop-color:#FFAC94"/>
	</linearGradient>
	<rect x="-8" y="26.018" clip-path="url(#SVGID_2_)" fill="url(#SVGID_3_)" width="1413" height="961.482"/>
	<g clip-path="url(#SVGID_2_)">
		<g>
			<g>
				<path fill="#C5FBFF" d="M656.266,516.191c3.217,0,3.223-5,0-5C653.048,511.191,653.043,516.191,656.266,516.191L656.266,516.191
					z"/>
			</g>
		</g>
		<g>
			<g>
				<path fill="#C5FBFF" d="M762.672,718.781c3.217,0,3.223-5,0-5C759.454,713.781,759.449,718.781,762.672,718.781L762.672,718.781
					z"/>
			</g>
		</g>
		<g>
			<g>
				<path fill="#C5FBFF" d="M941.672,551.781c3.217,0,3.223-5,0-5C938.454,546.781,938.449,551.781,941.672,551.781L941.672,551.781
					z"/>
			</g>
		</g>
		<g>
			<g>
				<path fill="#C5FBFF" d="M33.796,985.668c3.217,0,3.223-5,0-5C30.579,980.668,30.574,985.668,33.796,985.668L33.796,985.668z"/>
			</g>
		</g>
		<g>
			<g>
				<path fill="#C5FBFF" d="M360.78,933.17c3.217,0,3.223-5,0-5C357.563,928.17,357.558,933.17,360.78,933.17L360.78,933.17z"/>
			</g>
		</g>
		<g>
			<g>
				<path fill="#C5FBFF" d="M1181.239,589.688c3.217,0,3.223-5,0-5C1178.021,584.688,1178.017,589.688,1181.239,589.688
					L1181.239,589.688z"/>
			</g>
		</g>
		<g>
			<g>
				<path fill="#C5FBFF" d="M840.756,327.201c3.218,0,3.223-5,0-5C837.539,322.201,837.533,327.201,840.756,327.201L840.756,327.201
					z"/>
			</g>
		</g>
		<g>
			<g>
				<path fill="#C5FBFF" d="M585.769,165.208c3.217,0,3.222-5,0-5C582.552,160.208,582.546,165.208,585.769,165.208L585.769,165.208
					z"/>
			</g>
		</g>
		<g>
			<g>
				<path fill="#C5FBFF" d="M309.783,129.21c3.217,0,3.223-5,0-5C306.565,124.21,306.56,129.21,309.783,129.21L309.783,129.21z"/>
			</g>
		</g>
		<g>
			<g>
				<path fill="#C5FBFF" d="M339.781,51.214c3.217,0,3.223-5,0-5C336.564,46.214,336.559,51.214,339.781,51.214L339.781,51.214z"/>
			</g>
		</g>
		<g>
			<g>
				<path fill="#C5FBFF" d="M150.791,81.213c3.217,0,3.223-5,0-5C147.573,76.213,147.568,81.213,150.791,81.213L150.791,81.213z"/>
			</g>
		</g>
		<g>
			<g>
				<path fill="#C5FBFF" d="M53.295,273.203c3.217,0,3.223-5,0-5C50.078,268.203,50.073,273.203,53.295,273.203L53.295,273.203z"/>
			</g>
		</g>
		<g>
			<g>
				<path fill="#C5FBFF" d="M87.794,453.194c3.217,0,3.223-5,0-5C84.577,448.194,84.571,453.194,87.794,453.194L87.794,453.194z"/>
			</g>
		</g>
		<g>
			<g>
				<path fill="#C5FBFF" d="M1244.236,480.193c3.217,0,3.223-5,0-5C1241.019,475.193,1241.014,480.193,1244.236,480.193
					L1244.236,480.193z"/>
			</g>
		</g>
		<g>
			<g>
				<path fill="#C5FBFF" d="M1386.729,622.686c3.218,0,3.223-5,0-5C1383.512,617.686,1383.506,622.686,1386.729,622.686
					L1386.729,622.686z"/>
			</g>
		</g>
		<g>
			<g>
				<path fill="#C5FBFF" d="M1298.233,840.175c3.217,0,3.223-5,0-5C1295.016,835.175,1295.011,840.175,1298.233,840.175
					L1298.233,840.175z"/>
			</g>
		</g>
		<g>
			<g>
				<path fill="#C5FBFF" d="M908.253,945.17c3.217,0,3.223-5,0-5C905.035,940.17,905.03,945.17,908.253,945.17L908.253,945.17z"/>
			</g>
		</g>
		<g>
			<g>
				<path fill="#C5FBFF" d="M929.252,814.676c3.217,0,3.223-5,0-5C926.034,809.676,926.029,814.676,929.252,814.676L929.252,814.676
					z"/>
			</g>
		</g>
		<g>
			<g>
				<path fill="#C5FBFF" d="M113.292,563.188c1.93,0,1.934-3,0-3C111.362,560.188,111.359,563.188,113.292,563.188L113.292,563.188z
					"/>
			</g>
		</g>
		<g>
			<g>
				<path fill="#C5FBFF" d="M455.275,371.198c1.93,0,1.934-3,0-3C453.345,368.198,453.342,371.198,455.275,371.198L455.275,371.198z
					"/>
			</g>
		</g>
		<g>
			<g>
				<path fill="#C5FBFF" d="M809.258,360.699c1.931,0,1.934-3,0-3C807.327,357.699,807.324,360.699,809.258,360.699L809.258,360.699
					z"/>
			</g>
		</g>
		<g>
			<g>
				<path fill="#C5FBFF" d="M606.768,302.202c1.931,0,1.934-3,0-3C604.837,299.202,604.834,302.202,606.768,302.202L606.768,302.202
					z"/>
			</g>
		</g>
		<g>
			<g>
				<path fill="#C5FBFF" d="M297.783,245.205c1.93,0,1.934-3,0-3C295.853,242.205,295.85,245.205,297.783,245.205L297.783,245.205z"
					/>
			</g>
		</g>
		<g>
			<g>
				<path fill="#C5FBFF" d="M221.287,260.204c1.93,0,1.934-3,0-3C219.357,257.204,219.354,260.204,221.287,260.204L221.287,260.204z
					"/>
			</g>
		</g>
		<g>
			<g>
				<path fill="#C5FBFF" d="M311.283,398.197c1.93,0,1.934-3,0-3C309.353,395.197,309.349,398.197,311.283,398.197L311.283,398.197z
					"/>
			</g>
		</g>
		<g>
			<g>
				<path fill="#C5FBFF" d="M258.785,491.192c1.931,0,1.934-3,0-3C256.855,488.192,256.852,491.192,258.785,491.192L258.785,491.192
					z"/>
			</g>
		</g>
		<g>
			<g>
				<path fill="#C5FBFF" d="M486.774,552.689c1.93,0,1.934-3,0-3C484.843,549.689,484.84,552.689,486.774,552.689L486.774,552.689z"
					/>
			</g>
		</g>
		<g>
			<g>
				<path fill="#C5FBFF" d="M783.759,579.688c1.931,0,1.934-3,0-3C781.828,576.688,781.825,579.688,783.759,579.688L783.759,579.688
					z"/>
			</g>
		</g>
		<g>
			<g>
				<path fill="#C5FBFF" d="M464.275,777.678c1.93,0,1.934-3,0-3C462.345,774.678,462.341,777.678,464.275,777.678L464.275,777.678z
					"/>
			</g>
		</g>
		<g>
			<g>
				<path fill="#C5FBFF" d="M597.769,914.171c1.93,0,1.933-3,0-3C595.838,911.171,595.834,914.171,597.769,914.171L597.769,914.171z
					"/>
			</g>
		</g>
		<g>
			<g>
				<path fill="#C5FBFF" d="M177.789,969.668c1.931,0,1.934-3,0-3C175.859,966.668,175.855,969.668,177.789,969.668L177.789,969.668
					z"/>
			</g>
		</g>
		<g>
			<g>
				<path fill="#C5FBFF" d="M51.795,905.172c1.931,0,1.934-3,0-3C49.865,902.172,49.862,905.172,51.795,905.172L51.795,905.172z"/>
			</g>
		</g>
		<g>
			<g>
				<path fill="#C5FBFF" d="M861.755,801.677c1.931,0,1.934-3,0-3C859.824,798.677,859.821,801.677,861.755,801.677L861.755,801.677
					z"/>
			</g>
		</g>
		<g>
			<g>
				<path fill="#C5FBFF" d="M1356.73,893.172c1.93,0,1.934-3,0-3C1354.8,890.172,1354.797,893.172,1356.73,893.172L1356.73,893.172z
					"/>
			</g>
		</g>
		<g>
			<g>
				<path fill="#C5FBFF" d="M1250.235,747.68c1.931,0,1.934-3,0-3C1248.306,744.68,1248.302,747.68,1250.235,747.68L1250.235,747.68
					z"/>
			</g>
		</g>
		<g>
			<g>
				<path fill="#C5FBFF" d="M1128.742,738.68c1.93,0,1.934-3,0-3C1126.812,735.68,1126.809,738.68,1128.742,738.68L1128.742,738.68z
					"/>
			</g>
		</g>
		<g>
			<g>
				<path fill="#C5FBFF" d="M965.25,440.195c1.931,0,1.934-3,0-3C963.319,437.195,963.316,440.195,965.25,440.195L965.25,440.195z"
					/>
			</g>
		</g>
		<g>
			<g>
				<path fill="#C5FBFF" d="M597.769,375.698c1.93,0,1.933-3,0-3C595.838,372.698,595.834,375.698,597.769,375.698L597.769,375.698z
					"/>
			</g>
		</g>
		<g>
			<g>
				<path fill="#C5FBFF" d="M393.778,446.194c1.931,0,1.934-3,0-3C391.848,443.194,391.845,446.194,393.778,446.194L393.778,446.194
					z"/>
			</g>
		</g>
		<g>
			<g>
				<path fill="#C5FBFF" d="M684.764,671.184c1.931,0,1.934-3,0-3C682.833,668.184,682.831,671.184,684.764,671.184L684.764,671.184
					z"/>
			</g>
		</g>
		<g>
			<g>
				<path fill="#C5FBFF" d="M608.268,677.683c0.644,0,0.645-1,0-1C607.624,676.683,607.623,677.683,608.268,677.683L608.268,677.683
					z"/>
			</g>
		</g>
		<g>
			<g>
				<path fill="#C5FBFF" d="M432.776,575.688c0.644,0,0.645-1,0-1C432.133,574.688,432.132,575.688,432.776,575.688L432.776,575.688
					z"/>
			</g>
		</g>
		<g>
			<g>
				<path fill="#C5FBFF" d="M539.271,530.69c0.644,0,0.645-1,0-1C538.628,529.69,538.627,530.69,539.271,530.69L539.271,530.69z"/>
			</g>
		</g>
		<g>
			<g>
				<path fill="#C5FBFF" d="M570.77,401.697c0.644,0,0.645-1,0-1C570.126,400.697,570.125,401.697,570.77,401.697L570.77,401.697z"
					/>
			</g>
		</g>
		<g>
			<g>
				<path fill="#C5FBFF" d="M734.262,406.196c0.644,0,0.645-1,0-1C733.618,405.196,733.617,406.196,734.262,406.196L734.262,406.196
					z"/>
			</g>
		</g>
		<g>
			<g>
				<path fill="#C5FBFF" d="M688.671,375.781c0.644,0,0.645-1,0-1C688.028,374.781,688.027,375.781,688.671,375.781L688.671,375.781
					z"/>
			</g>
		</g>
		<g>
			<g>
				<path fill="#C5FBFF" d="M396.005,278.448c0.644,0,0.645-1,0-1C395.361,277.448,395.36,278.448,396.005,278.448L396.005,278.448z
					"/>
			</g>
		</g>
		<g>
			<g>
				<path fill="#C5FBFF" d="M511.338,222.448c0.643,0,0.645-1,0-1C510.695,221.448,510.694,222.448,511.338,222.448L511.338,222.448
					z"/>
			</g>
		</g>
		<g>
			<g>
				<path fill="#C5FBFF" d="M230.287,170.708c0.644,0,0.645-1,0-1C229.643,169.708,229.642,170.708,230.287,170.708L230.287,170.708
					z"/>
			</g>
		</g>
		<g>
			<g>
				<path fill="#C5FBFF" d="M147.791,200.707c0.643,0,0.645-1,0-1C147.147,199.707,147.146,200.707,147.791,200.707L147.791,200.707
					z"/>
			</g>
		</g>
		<g>
			<g>
				<path fill="#C5FBFF" d="M158.291,334.2c0.643,0,0.644-1,0-1C157.647,333.2,157.646,334.2,158.291,334.2L158.291,334.2z"/>
			</g>
		</g>
		<g>
			<g>
				<path fill="#C5FBFF" d="M155.291,914.671c0.644,0,0.645-1,0-1C154.647,913.671,154.646,914.671,155.291,914.671L155.291,914.671
					z"/>
			</g>
		</g>
		<g>
			<g>
				<path fill="#C5FBFF" d="M375.779,964.169c0.644,0,0.645-1,0-1C375.136,963.169,375.135,964.169,375.779,964.169L375.779,964.169
					z"/>
			</g>
		</g>
		<g>
			<g>
				<path fill="#C5FBFF" d="M866.255,964.169c0.644,0,0.645-1,0-1C865.611,963.169,865.61,964.169,866.255,964.169L866.255,964.169z
					"/>
			</g>
		</g>
		<g>
			<g>
				<path fill="#C5FBFF" d="M584.269,499.191c0.644,0,0.645-1,0-1C583.625,498.191,583.625,499.191,584.269,499.191L584.269,499.191
					z"/>
			</g>
		</g>
		<g>
			<g>
				<path fill="#C5FBFF" d="M393.778,479.693c0.644,0,0.645-1,0-1C393.135,478.693,393.134,479.693,393.778,479.693L393.778,479.693
					z"/>
			</g>
		</g>
		<g>
			<g>
				<path fill="#C5FBFF" d="M830.257,395.697c0.644,0,0.645-1,0-1C829.613,394.697,829.612,395.697,830.257,395.697L830.257,395.697
					z"/>
			</g>
		</g>
		<g>
			<g>
				<path fill="#C5FBFF" d="M1005.748,535.19c0.644,0,0.645-1,0-1C1005.104,534.19,1005.104,535.19,1005.748,535.19L1005.748,535.19
					z"/>
			</g>
		</g>
		<g>
			<g>
				<path fill="#C5FBFF" d="M966.75,661.184c0.644,0,0.645-1,0-1C966.106,660.184,966.105,661.184,966.75,661.184L966.75,661.184z"
					/>
			</g>
		</g>
		<g>
			<g>
				<path fill="#C5FBFF" d="M440.276,839.675c0.643,0,0.645-1,0-1C439.633,838.675,439.632,839.675,440.276,839.675L440.276,839.675
					z"/>
			</g>
		</g>
		<g>
			<g>
				<path fill="#C5FBFF" d="M305.283,917.671c0.644,0,0.645-1,0-1C304.64,916.671,304.638,917.671,305.283,917.671L305.283,917.671z
					"/>
			</g>
		</g>
		<g>
			<g>
				<path fill="#C5FBFF" d="M722.262,974.668c0.644,0,0.645-1,0-1C721.618,973.668,721.617,974.668,722.262,974.668L722.262,974.668
					z"/>
			</g>
		</g>
		<g>
			<g>
				<path fill="#C5FBFF" d="M947.251,952.169c0.644,0,0.645-1,0-1C946.607,951.169,946.606,952.169,947.251,952.169L947.251,952.169
					z"/>
			</g>
		</g>
		<g>
			<g>
				<path fill="#C5FBFF" d="M1095.743,850.174c0.644,0,0.645-1,0-1C1095.1,849.174,1095.099,850.174,1095.743,850.174
					L1095.743,850.174z"/>
			</g>
		</g>
		<g>
			<g>
				<path fill="#C5FBFF" d="M1374.729,848.674c0.644,0,0.645-1,0-1C1374.086,847.674,1374.085,848.674,1374.729,848.674
					L1374.729,848.674z"/>
			</g>
		</g>
		<g>
			<g>
				<path fill="#C5FBFF" d="M1226.236,836.675c0.644,0,0.645-1,0-1C1225.594,835.675,1225.592,836.675,1226.236,836.675
					L1226.236,836.675z"/>
			</g>
		</g>
		<g>
			<g>
				<path fill="#C5FBFF" d="M966.75,650.685c0.644,0,0.645-1,0-1C966.106,649.685,966.105,650.685,966.75,650.685L966.75,650.685z"
					/>
			</g>
		</g>
		<g>
			<g>
				<path fill="#C5FBFF" d="M923.252,695.682c0.644,0,0.645-1,0-1C922.608,694.682,922.607,695.682,923.252,695.682L923.252,695.682
					z"/>
			</g>
		</g>
		<g>
			<g>
				<path fill="#C5FBFF" d="M1022.247,698.682c0.644,0,0.645-1,0-1C1021.604,697.682,1021.603,698.682,1022.247,698.682
					L1022.247,698.682z"/>
			</g>
		</g>
		<g>
			<g>
				<path fill="#C5FBFF" d="M1088.244,614.686c0.643,0,0.645-1,0-1C1087.601,613.686,1087.6,614.686,1088.244,614.686
					L1088.244,614.686z"/>
			</g>
		</g>
		<g>
			<g>
				<path fill="#C5FBFF" d="M1025.247,481.193c0.644,0,0.645-1,0-1C1024.604,480.193,1024.603,481.193,1025.247,481.193
					L1025.247,481.193z"/>
			</g>
		</g>
		<g>
			<g>
				<path fill="#C5FBFF" d="M1379.229,473.693c0.644,0,0.645-1,0-1C1378.586,472.693,1378.585,473.693,1379.229,473.693
					L1379.229,473.693z"/>
			</g>
		</g>
		<g>
			<g>
				<path fill="#C5FBFF" d="M1368.729,517.19c0.644,0,0.645-1,0-1C1368.086,516.19,1368.085,517.19,1368.729,517.19L1368.729,517.19
					z"/>
			</g>
		</g>
		<g>
			<g>
				<path fill="#C5FBFF" d="M818.257,245.705c0.644,0,0.645-1,0-1C817.613,244.705,817.612,245.705,818.257,245.705L818.257,245.705
					z"/>
			</g>
		</g>
		<g>
			<g>
				<path fill="#C5FBFF" d="M705.763,242.705c0.644,0,0.645-1,0-1C705.119,241.705,705.118,242.705,705.763,242.705L705.763,242.705
					z"/>
			</g>
		</g>
		<g>
			<g>
				<path fill="#C5FBFF" d="M755.261,179.708c0.644,0,0.645-1,0-1C754.617,178.708,754.616,179.708,755.261,179.708L755.261,179.708
					z"/>
			</g>
		</g>
		<g>
			<g>
				<path fill="#C5FBFF" d="M630.767,112.211c0.644,0,0.645-1,0-1C630.123,111.211,630.122,112.211,630.767,112.211L630.767,112.211
					z"/>
			</g>
		</g>
		<g>
			<g>
				<path fill="#C5FBFF" d="M476.274,82.213c0.644,0,0.645-1,0-1C475.631,81.213,475.63,82.213,476.274,82.213L476.274,82.213z"/>
			</g>
		</g>
		<g>
			<g>
				<path fill="#C5FBFF" d="M660.765,65.713c0.644,0,0.645-1,0-1C660.122,64.713,660.121,65.713,660.765,65.713L660.765,65.713z"/>
			</g>
		</g>
		<g>
			<g>
				<path fill="#C5FBFF" d="M777.76,77.713c0.643,0,0.645-1,0-1C777.116,76.713,777.115,77.713,777.76,77.713L777.76,77.713z"/>
			</g>
		</g>
		<g>
			<g>
				<path fill="#C5FBFF" d="M851.256,146.709c0.644,0,0.645-1,0-1C850.612,145.709,850.611,146.709,851.256,146.709L851.256,146.709
					z"/>
			</g>
		</g>
		<g>
			<g>
				<path fill="#C5FBFF" d="M791.259,209.706c0.644,0,0.645-1,0-1C790.615,208.706,790.614,209.706,791.259,209.706L791.259,209.706
					z"/>
			</g>
		</g>
		<g>
			<g>
				<path fill="#C5FBFF" d="M1304.233,279.119c3.217,0,3.223-5,0-5C1301.016,274.119,1301.011,279.119,1304.233,279.119
					L1304.233,279.119z"/>
			</g>
		</g>
		<g>
			<g>
				<path fill="#C5FBFF" d="M1235.236,289.619c3.218,0,3.223-5,0-5C1232.02,284.619,1232.014,289.619,1235.236,289.619
					L1235.236,289.619z"/>
			</g>
		</g>
		<g>
			<g>
				<path fill="#C5FBFF" d="M1349.23,135.126c3.218,0,3.223-5,0-5C1346.014,130.126,1346.008,135.126,1349.23,135.126
					L1349.23,135.126z"/>
			</g>
		</g>
		<g>
			<g>
				<path fill="#C5FBFF" d="M1041.746,57.13c3.218,0,3.223-5,0-5C1038.529,52.13,1038.523,57.13,1041.746,57.13L1041.746,57.13z"/>
			</g>
		</g>
		<g>
			<g>
				<path fill="#C5FBFF" d="M924.752,169.625c3.218,0,3.223-5,0-5C921.535,164.625,921.529,169.625,924.752,169.625L924.752,169.625
					z"/>
			</g>
		</g>
		<g>
			<g>
				<path fill="#C5FBFF" d="M1304.233,411.113c3.217,0,3.223-5,0-5C1301.016,406.113,1301.011,411.113,1304.233,411.113
					L1304.233,411.113z"/>
			</g>
		</g>
		<g>
			<g>
				<path fill="#C5FBFF" d="M230.287,760.595c3.217,0,3.223-5,0-5C227.07,755.595,227.064,760.595,230.287,760.595L230.287,760.595z
					"/>
			</g>
		</g>
		<g>
			<g>
				<path fill="#C5FBFF" d="M126.792,670.6c3.217,0,3.223-5,0-5C123.575,665.6,123.569,670.6,126.792,670.6L126.792,670.6z"/>
			</g>
		</g>
		<g>
			<g>
				<path fill="#C5FBFF" d="M1122.742,948.086c3.217,0,3.223-5,0-5C1119.525,943.086,1119.52,948.086,1122.742,948.086
					L1122.742,948.086z"/>
			</g>
		</g>
	</g>
	<g clip-path="url(#SVGID_2_)">
		<circle opacity="0.13" fill="#FFFFFF" cx="691.052" cy="607.576" r="279.116"/>
		<circle opacity="0.13" fill="#FFFFFF" cx="691.051" cy="607.576" r="241.627"/>
		<circle opacity="0.13" fill="#FFFFFF" cx="691.052" cy="607.576" r="222.113"/>
		<circle fill="#FFDCC5" cx="691.051" cy="607.576" r="196.671"/>
		<linearGradient id="SVGID_4_" gradientUnits="userSpaceOnUse" x1="645.3472" y1="552.416" x2="819.3474" y2="762.4161">
			<stop  offset="0" style="stop-color:#3D9CD8;stop-opacity:0"/>
			<stop  offset="1" style="stop-color:#3D9CD8"/>
		</linearGradient>
		<circle fill="url(#SVGID_4_)" cx="691.051" cy="607.576" r="196.671"/>
	</g>
	<linearGradient id="SVGID_5_" gradientUnits="userSpaceOnUse" x1="1227.9756" y1="494.3291" x2="1003.1438" y2="241.9241">
		<stop  offset="0" style="stop-color:#FFFFFF;stop-opacity:0"/>
		<stop  offset="1" style="stop-color:#FFFFFF"/>
	</linearGradient>
	<path opacity="0.29" clip-path="url(#SVGID_2_)" fill="url(#SVGID_5_)" d="M1394.78,59.307
		c-29.297-1.918-58.899,2.861-86.644,16.436c-16.296,7.973-31.094,18.726-44.979,30.402c-33.321,28.019-62.868,63.728-71.19,106.46
		c-6.115,31.401-3.336,70.241-30.035,87.863c-10.738,7.088-24.148,8.758-35.696,14.431c-45.848,22.522-46.801,96.92-93.757,117.031
		c-13.815,5.918-29.589,5.891-43.471,11.651c-35.296,14.646-47.214,60.528-79.732,80.6c-15.904,9.816-36.262,13.112-48.567,27.18
		c-7.269,8.309-10.869,19.582-19.152,26.879c-11.979,10.551-29.847,9.804-44.979,14.886c-32.121,10.789-52.552,48.251-86.314,51.116
		c26.704,0,59.512,14.119,85.607,20.309c28.501,6.76,54.638,8.211,83.973,8.764c61.473,1.158,122.976,0.7,184.424-1.37
		c122.897-4.14,245.577-14.728,367.363-31.728c29.229-4.081,58.406-8.53,87.521-13.349c4.752-0.786,9.757-1.697,13.422-4.821
		c4.747-4.048,6.063-10.73,7.092-16.884c13.249-79.297,26.498-158.594,39.747-237.891c6.451-38.608,12.915-77.346,14.34-116.463
		c0.969-26.594-0.507-53.786-9.929-78.673c-13.97-36.897-42.316-49.318-72.122-70.044
		C1477.498,78.308,1436.448,62.034,1394.78,59.307z"/>
	
		<linearGradient id="SVGID_6_" gradientUnits="userSpaceOnUse" x1="1093.2334" y1="966.5801" x2="923.2426" y2="746.5917" gradientTransform="matrix(0.9864 0.1647 -0.1647 0.9864 299.5786 -534.2529)">
		<stop  offset="0" style="stop-color:#FFFFFF;stop-opacity:0"/>
		<stop  offset="1" style="stop-color:#FFFFFF"/>
	</linearGradient>
	<path opacity="0.29" clip-path="url(#SVGID_2_)" fill="url(#SVGID_6_)" d="M1355.042,252.176
		c-54.327,20.166-86.724,74.514-116.435,124.268c-12.257,20.525-25.2,41.381-44.166,55.935
		c-21.32,16.361-48.271,23.261-71.936,35.997c-24.818,13.357-46.027,33.346-60.83,57.329c-2.746,4.449-5.33,9.102-9.131,12.691
		c-10.347,9.773-26.321,9.16-40.173,12.43c-34.612,8.17-60.938,42.999-96.498,42.471c-7.431-0.11-15.377-1.732-21.934,1.768
		c-4.906,2.619-8.021,7.639-12.375,11.101c-17.714,14.088-43.776-2.836-66.095,0.928c-7.817,1.317-14.934,5.193-21.883,9.009
		c-16.916,9.29-33.833,18.579-50.749,27.868c-10.184,5.592-21.992,17.04-15.353,26.572c3.109,4.464,9.027,5.768,14.382,6.727
		c34.986,6.262,69.974,12.524,104.96,18.786c157.93,28.268,315.861,56.536,473.962,83.832
		c73.691,12.723,148.256,25.281,222.864,20.196c3.857-0.263,7.978-0.675,10.966-3.128c3.51-2.881,4.503-7.753,5.274-12.229
		c13.735-79.736,27.472-159.474,41.207-239.211c8.028-46.601,16.072-93.35,18.182-140.59c1.162-26.018-0.19-54.216-16.344-74.646
		c-24.169-30.567-71.361-55.291-107.514-67.722C1450.789,247.211,1401.039,235.103,1355.042,252.176z"/>
	<linearGradient id="SVGID_7_" gradientUnits="userSpaceOnUse" x1="164.832" y1="508.8945" x2="293.8254" y2="354.4022">
		<stop  offset="0" style="stop-color:#FFFFFF;stop-opacity:0"/>
		<stop  offset="1" style="stop-color:#FFFFFF"/>
	</linearGradient>
	<path opacity="0.29" clip-path="url(#SVGID_2_)" fill="url(#SVGID_7_)" d="M-15.863,98.765c28.038,8.956,51.44,28.24,73.551,47.667
		c28.215,24.789,56.138,51.228,73.42,84.572c9.932,19.163,16.386,40.628,30.874,56.625c15.294,16.889,37.538,25.464,55.882,38.979
		c26.931,19.839,44.523,49.529,61.934,78.09c10.519,17.256,21.569,34.774,37.537,47.161c10.502,8.146,22.738,13.75,33.7,21.265
		c23.085,15.824,39.559,39.37,59.775,58.724c29.976,28.696,67.711,47.752,105.35,65.227c47.405,22.009,95.653,42.199,144.604,60.512
		c-198.192,0.331-396.384,0.661-594.577,0.992c-27.772,0.047-55.834,0.062-82.891-6.206s-53.417-19.482-70.341-41.503
		c-17.308-22.52-23.073-51.61-27.543-79.658c-12.818-80.437-19.09-161.917-18.763-243.368c0.156-38.784,4.02-77.391,4.565-116.101
		c0.266-18.86-7.364-46.022,6.562-61.685C-100.781,85.943-42.926,90.122-15.863,98.765z"/>
	<linearGradient id="SVGID_8_" gradientUnits="userSpaceOnUse" x1="10.2607" y1="560.0615" x2="172.2526" y2="353.0716">
		<stop  offset="0" style="stop-color:#FFFFFF;stop-opacity:0"/>
		<stop  offset="1" style="stop-color:#FFFFFF"/>
	</linearGradient>
	<path opacity="0.29" clip-path="url(#SVGID_2_)" fill="url(#SVGID_8_)" d="M-91.503,156.983
		c41.959,21.959,74.302,61.587,87.409,107.095c6.526,22.662,9.195,48.013,25.379,65.166c7.988,8.467,18.511,13.993,28.074,20.631
		c21.55,14.959,38.685,36.2,48.746,60.427c4.638,11.169,7.883,23.094,14.744,33.052c13.391,19.434,37.762,27.762,55.377,43.469
		c13.328,11.884,23.062,28.229,38.929,36.42c6.538,3.376,13.87,5.205,19.984,9.299c10.769,7.212,16.144,20.28,25.989,28.709
		c8.675,7.426,20.074,10.656,31.084,13.686c67.836,18.663,135.672,37.325,203.508,55.988
		c-187.486-13.704-374.908,32.854-562.762,25.803c-36.689-1.377-74.231-5.047-107.319-20.959c-3.358-1.614-6.746-3.42-9.154-6.263
		c-2.853-3.367-4.019-7.809-5.068-12.095c-9.417-38.482-15.953-77.669-19.533-117.125c-4.556-50.214-4.325-100.725-4.089-151.145
		c0.16-34.26,0.319-68.52,0.479-102.779c0.111-23.745-5.694-56.42,5.233-78.575C-194.179,126.597-122.508,140.757-91.503,156.983z"
		/>
	<rect x="-27.811" y="607.576" clip-path="url(#SVGID_2_)" fill="#476AAE" width="1476.147" height="412.867"/>
	<linearGradient id="SVGID_9_" gradientUnits="userSpaceOnUse" x1="710.2627" y1="654.4072" x2="710.2627" y2="1068.4594">
		<stop  offset="0" style="stop-color:#1F2B5F;stop-opacity:0"/>
		<stop  offset="1" style="stop-color:#1F2B5F"/>
	</linearGradient>
	<rect x="-27.811" y="607.576" clip-path="url(#SVGID_2_)" fill="url(#SVGID_9_)" width="1476.147" height="412.867"/>
	<g clip-path="url(#SVGID_2_)">
		
			<linearGradient id="SVGID_10_" gradientUnits="userSpaceOnUse" x1="889.8418" y1="-255.3315" x2="889.8418" y2="216.7751" gradientTransform="matrix(0.6107 0.7918 -0.7918 0.6107 549.9521 -439.4141)">
			<stop  offset="0" style="stop-color:#FFAC94;stop-opacity:0"/>
			<stop  offset="1" style="stop-color:#FFAC94"/>
		</linearGradient>
		<path fill="url(#SVGID_10_)" d="M1338.74,84.471l-291.063,225.328c-3.106,2.396-7.566,1.82-9.963-1.287l0,0
			c-2.396-3.106-1.819-7.567,1.287-9.962l291.063-225.329L1338.74,84.471z"/>
		
			<linearGradient id="SVGID_11_" gradientUnits="userSpaceOnUse" x1="907.9922" y1="-197.165" x2="907.9922" y2="269.3741" gradientTransform="matrix(0.4791 0.6212 -0.7918 0.6107 658.3032 -298.7256)">
			<stop  offset="0" style="stop-color:#FFFFFF;stop-opacity:0"/>
			<stop  offset="1" style="stop-color:#FFFFFF"/>
		</linearGradient>
		<path fill="url(#SVGID_11_)" d="M1336.114,84.689l-287.717,222.559c-3.07,2.368-7.064,2.334-8.922-0.074l0,0
			c-1.857-2.408-0.875-6.28,2.195-8.648l287.717-222.559L1336.114,84.689z"/>
		<circle fill="#FFD2D2" cx="1043.787" cy="303.836" r="5.939"/>
	</g>
	<g clip-path="url(#SVGID_2_)">
		<path fill="#27376B" d="M746.313,607.968H614.964v-17.092c0,0,19.483,2.945,99.219,1.914
			c63.955-0.826,119.089-7.167,119.089-7.167L746.313,607.968z"/>
		<polygon fill="#27376B" points="721.307,599.146 634.471,599.146 634.471,582.606 783.113,589.951 		"/>
		<polygon fill="#27376B" points="681.811,462.87 614.964,578.65 678.723,578.65 		"/>
		<path fill="#27376B" d="M681.811,483.779l52.314,107.097c0,0-19.007-14.113-55.402-12.226
			C678.723,578.65,689.454,542.083,681.811,483.779z"/>
		<rect x="673.753" y="527.196" fill="#27376B" width="5.796" height="60.785"/>
		<rect x="729.508" y="505.247" fill="#27376B" width="2.541" height="86.84"/>
		<linearGradient id="SVGID_12_" gradientUnits="userSpaceOnUse" x1="632.7183" y1="461.6992" x2="664.9697" y2="583.2626">
			<stop  offset="0" style="stop-color:#FFAC94;stop-opacity:0"/>
			<stop  offset="1" style="stop-color:#FFAC94"/>
		</linearGradient>
		<path fill="url(#SVGID_12_)" d="M681.811,462.87l-66.846,115.78C631.846,573.868,681.811,462.87,681.811,462.87z"/>
		<linearGradient id="SVGID_13_" gradientUnits="userSpaceOnUse" x1="684.2744" y1="448.021" x2="716.5258" y2="569.5838">
			<stop  offset="0" style="stop-color:#FFAC94;stop-opacity:0"/>
			<stop  offset="1" style="stop-color:#FFAC94"/>
		</linearGradient>
		<path fill="url(#SVGID_13_)" d="M734.125,590.876l-52.314-107.097C681.811,483.779,709.729,569.787,734.125,590.876z"/>
		<path fill="#27376B" d="M732.049,505.247l42.474,86.951c0,0-15.432-11.458-44.98-9.926
			C729.542,582.272,738.254,552.584,732.049,505.247z"/>
		<linearGradient id="SVGID_14_" gradientUnits="userSpaceOnUse" x1="734.0488" y1="476.2153" x2="760.2336" y2="574.9117">
			<stop  offset="0" style="stop-color:#FFAC94;stop-opacity:0"/>
			<stop  offset="1" style="stop-color:#FFAC94"/>
		</linearGradient>
		<path fill="url(#SVGID_14_)" d="M774.522,592.198l-42.474-86.951C732.049,505.247,754.715,575.076,774.522,592.198z"/>
	</g>
	<path clip-path="url(#SVGID_2_)" fill="#27376B" d="M124.363,402.721h29.904c0,0-14.676-11.247-30.569-8.651l23.241-13.968
		c0,0-15.393-1.742-27.42,5.946l12.496-19.628c0,0-17.989,6.565-21.993,22.085c-4.004-15.521-21.993-22.085-21.993-22.085
		l16.472,25.874c-12.118-12.981-33.05-10.61-33.05-10.61l26.308,15.812c-16.857-4.408-33.177,8.101-33.177,8.101h30.525
		c-16.518,5.286-23.659,24.437-23.659,24.437l25.682-16.096c-5.951,8.115-5.578,18.95-5.578,18.95l16.455-23.07
		c1.834,28.491-6.938,131.195-6.938,131.195h27.869c-11.602-28.618-15.09-110.993-15.783-131.26l13.779,19.319
		c0,0,0.393-11.459-6.458-18.915l26.634,16.692C147.109,426.848,140.231,408.404,124.363,402.721z"/>
	<linearGradient id="SVGID_15_" gradientUnits="userSpaceOnUse" x1="100.1206" y1="453.8208" x2="152.7876" y2="453.1541">
		<stop  offset="0" style="stop-color:#FFAC94;stop-opacity:0"/>
		<stop  offset="1" style="stop-color:#FFAC94"/>
	</linearGradient>
	<path clip-path="url(#SVGID_2_)" fill="url(#SVGID_15_)" d="M124.363,402.721h29.904c0,0-14.676-11.247-30.569-8.651l23.241-13.968
		c0,0-15.393-1.742-27.42,5.946l12.496-19.628c0,0-17.989,6.565-21.993,22.085c-4.004-15.521-21.993-22.085-21.993-22.085
		l16.472,25.874c-12.118-12.981-33.05-10.61-33.05-10.61l26.308,15.812c-16.857-4.408-33.177,8.101-33.177,8.101h30.525
		c-16.518,5.286-23.659,24.437-23.659,24.437l25.682-16.096c-5.951,8.115-5.578,18.95-5.578,18.95l16.455-23.07
		c1.834,28.491-6.938,131.195-6.938,131.195h27.869c-11.602-28.618-15.09-110.993-15.783-131.26l13.779,19.319
		c0,0,0.393-11.459-6.458-18.915l26.634,16.692C147.109,426.848,140.231,408.404,124.363,402.721z"/>
	<path clip-path="url(#SVGID_2_)" fill="#27376B" d="M216.784,570.072c-34.686-47.316-38.364-86.736-38.517-99.929l6.097,13.952
		c0,0,5.053-9.11-0.227-14.856l15.983,13.341c0,0-0.761-14.69-12.988-19.069l22.381,2.858c0,0-10.646-11.525-22.893-9.525
		l18.348-6.99c0,0-12.3-5.116-21.568,0.808l12.629-13.383c0,0-16.861,3.317-19.947,15.277c1.312-13.762-14.899-19.67-14.899-19.67
		l10.646,22.589c-9.338-10.002-20.342-7.287-20.342-7.287l15.146,11.295c-12.989-3.396-21.534,3.71-21.534,3.71l19.49,2.532
		c-12.728,4.073-14.164,18.218-14.164,18.218l15.723-11.791c-4.586,6.253-0.118,14.187-0.118,14.187l8.042-15.45
		c0.916,67.9,17.145,98.767,17.145,98.767L216.784,570.072z"/>
	<linearGradient id="SVGID_16_" gradientUnits="userSpaceOnUse" x1="177.9141" y1="503.6152" x2="206.4141" y2="498.1152">
		<stop  offset="0" style="stop-color:#FFAC94;stop-opacity:0"/>
		<stop  offset="1" style="stop-color:#FFAC94"/>
	</linearGradient>
	<path clip-path="url(#SVGID_2_)" fill="url(#SVGID_16_)" d="M216.784,570.072c-34.686-47.316-38.364-86.736-38.517-99.929
		l6.097,13.952c0,0,5.053-9.11-0.227-14.856l15.983,13.341c0,0-0.761-14.69-12.988-19.069l22.381,2.858
		c0,0-10.646-11.525-22.893-9.525l18.348-6.99c0,0-12.3-5.116-21.568,0.808l12.629-13.383c0,0-16.861,3.317-19.947,15.277
		c1.312-13.762-14.899-19.67-14.899-19.67l10.646,22.589c-9.338-10.002-20.342-7.287-20.342-7.287l15.146,11.295
		c-12.989-3.396-21.534,3.71-21.534,3.71l19.49,2.532c-12.728,4.073-14.164,18.218-14.164,18.218l15.723-11.791
		c-4.586,6.253-0.118,14.187-0.118,14.187l8.042-15.45c0.916,67.9,17.145,98.767,17.145,98.767L216.784,570.072z"/>
	<path clip-path="url(#SVGID_2_)" fill="#27376B" d="M297.34,607.581c-7.986-5.536-15.521-11.723-22.482-18.502
		c-7.172-6.984-14.121-14.832-23.528-18.254c-7.011-2.55-14.665-2.355-22.105-2.901c-17.163-1.26-34.004-6.692-48.667-15.698
		c-6.707-4.12-13.071-9.025-20.531-11.535c-7.376-2.481-15.327-2.452-23.109-2.396c-10.359,0.073-20.719,0.147-31.079,0.221
		c-2.329,0.017-4.772,0.062-6.799,1.209c-1.757,0.993-2.981,2.693-4.148,4.341c-8.057,11.374-16.114,22.748-24.171,34.123
		c-4.299,6.069-18.247,20.124-22.399,29.394H297.34z"/>
	<linearGradient id="SVGID_17_" gradientUnits="userSpaceOnUse" x1="177.6445" y1="586.6943" x2="189.1444" y2="527.6946">
		<stop  offset="0" style="stop-color:#FFAC94;stop-opacity:0"/>
		<stop  offset="1" style="stop-color:#FFAC94"/>
	</linearGradient>
	<path clip-path="url(#SVGID_2_)" fill="url(#SVGID_17_)" d="M229.226,567.924c-17.163-1.26-34.004-6.692-48.667-15.698
		c-6.707-4.12-13.071-9.025-20.531-11.535c-7.376-2.481-15.327-2.452-23.109-2.396c-10.359,0.073-20.719,0.147-31.079,0.221
		c-2.329,0.017-4.772,0.062-6.799,1.209c-1.757,0.993-2.981,2.693-4.148,4.341c-1.97,2.781-3.94,5.562-5.911,8.344
		c11.225,5.997,23.146,10.615,36.015,11.34c16.16,0.91,34.343-3.917,47.244,5.858c2.89,2.19,5.298,5.011,8.394,6.9
		c3.341,2.039,7.262,2.86,11.096,3.648c12.604,2.592,25.207,5.183,37.811,7.774c8.524,1.752,17.174,3.514,25.857,2.925
		c5.975-0.405,11.764-1.911,17.504-3.704c-6.501-6.45-13.021-13.216-21.57-16.325C244.32,568.275,236.666,568.47,229.226,567.924z"
		/>
	<linearGradient id="SVGID_18_" gradientUnits="userSpaceOnUse" x1="670.5693" y1="759.4814" x2="670.5693" y2="561.4917">
		<stop  offset="0" style="stop-color:#1F2B5F;stop-opacity:0"/>
		<stop  offset="1" style="stop-color:#1F2B5F"/>
	</linearGradient>
	<polygon opacity="0.64" clip-path="url(#SVGID_2_)" fill="url(#SVGID_18_)" points="614.964,607.968 468.939,796.979 
		872.199,796.979 746.364,607.968 	"/>
	<g clip-path="url(#SVGID_2_)">
		<path fill="#1B2F61" d="M54.893,902.346c11.958,1.506,24.527-0.617,35.833,3.56c9.066,3.351,16.197,10.354,23.996,16.064
			c8.575,6.278,18.205,11.113,28.361,14.241c14.103,4.344,31.505,7.099,37.858,20.417c-31.334,0-62.669,0-94.003,0
			c-39.512,0-79.188-0.569-118.475-1.216c-0.624-0.011-1.338-0.065-1.715-0.563c-0.306-0.404-0.276-0.961-0.232-1.466
			c0.331-3.811,0.662-7.62,0.993-11.431c0.142-1.63,0.286-3.274,0.777-4.834c0.648-2.06,1.872-3.882,3.079-5.672
			c3.579-5.307,6.879-11.04,10.836-16.068c3.021-3.839,6.988-6.343,10.186-10.053c5.451-6.325,5.452-16.349,11.682-21.909
			C23.348,866.209,36.807,900.068,54.893,902.346z"/>
		
			<linearGradient id="SVGID_19_" gradientUnits="userSpaceOnUse" x1="4854.7031" y1="943.3105" x2="4837.9932" y2="878.6991" gradientTransform="matrix(-1 0 0 1 4930.2305 0)">
			<stop  offset="0" style="stop-color:#FFAC94;stop-opacity:0"/>
			<stop  offset="1" style="stop-color:#FFAC94"/>
		</linearGradient>
		<path fill="url(#SVGID_19_)" d="M-32.492,941.952c0.142-1.63,0.287-3.274,0.778-4.834c0.648-2.06,1.872-3.882,3.079-5.672
			c3.579-5.307,6.879-11.04,10.836-16.068c3.021-3.839,6.988-6.343,10.186-10.053c5.452-6.325,5.452-16.349,11.682-21.909
			c19.279-17.207,32.738,16.652,50.824,18.93c11.958,1.506,24.527-0.617,35.832,3.56c9.067,3.351,16.198,10.354,23.997,16.064
			c8.575,6.278,18.204,11.113,28.361,14.241c14.103,4.344,31.505,7.099,37.858,20.417c-4.629,0-9.258,0-13.888,0
			c-1.055-0.475-2.138-0.966-3.257-1.47c-2.957-1.333-5.914-2.666-8.87-3.999c-18.968-8.55-37.998-17.134-55.707-28.055
			c-5.188-3.2-10.402-6.659-16.356-7.965c-4.867-1.066-9.918-0.622-14.896-0.837c-16.678-0.72-32.844-9.347-42.726-22.801
			c-1.98-2.696-4.138-5.843-7.457-6.263c-6.12-0.773-8.582,7.36-11.607,12.736c-4.468,7.94-13.804,11.751-19.809,18.604
			c-3.647,4.162-5.942,9.304-8.809,14.037c-2.833,4.68-6.271,8.99-10.18,12.818C-32.577,942.94-32.534,942.446-32.492,941.952z"/>
		
			<linearGradient id="SVGID_20_" gradientUnits="userSpaceOnUse" x1="4882.627" y1="1026.1465" x2="4892.0264" y2="966.9297" gradientTransform="matrix(-1 0 0 1 4930.2305 0)">
			<stop  offset="0" style="stop-color:#1F2B5F;stop-opacity:0"/>
			<stop  offset="1" style="stop-color:#1F2B5F"/>
		</linearGradient>
		<polygon fill="url(#SVGID_20_)" points="180.941,956.628 36.696,1077.62 -90.305,1066.867 -33.252,954.849 		"/>
	</g>
	<linearGradient id="SVGID_21_" gradientUnits="userSpaceOnUse" x1="1276.4678" y1="1013.8359" x2="1228.4677" y2="847.8358">
		<stop  offset="0" style="stop-color:#1F2B5F;stop-opacity:0"/>
		<stop  offset="1" style="stop-color:#1F2B5F"/>
	</linearGradient>
	<polygon opacity="0.64" clip-path="url(#SVGID_2_)" fill="url(#SVGID_21_)" points="867.15,825.234 1092.226,1104.46 
		1650.226,1079.46 1521.226,804.247 	"/>
	<path clip-path="url(#SVGID_2_)" fill="#27376B" d="M1364.298,454.031c-9.931,1.837-20.003,3.721-29.076,8.157
		c-17.449,8.532-29.109,25.356-39.629,41.686c-21.325,33.1-41.958,67.913-73.155,91.936
		c-35.429,27.281-81.896,38.501-114.523,69.076c-9.975,9.347-18.418,20.312-29.047,28.907
		c-29.547,23.891-70.716,25.914-105.731,40.67c-43.275,18.238-75.435,55.106-105.985,90.772
		c16.217,10.156,36.22,11.612,55.321,12.722c218.269,12.68,437.06,16.358,655.63,11.023c2.391-0.058,5.043-0.228,6.702-1.948
		c1.615-1.675,1.731-4.247,1.753-6.573c0.604-65.958,1.207-131.915,1.81-197.872c0.607-66.429,1.454-138.213-28.062-199.483
		c-16.643-34.547-47.626-16.524-80.271-10.485C1441.455,439.755,1402.877,446.893,1364.298,454.031z"/>
	<linearGradient id="SVGID_22_" gradientUnits="userSpaceOnUse" x1="1246.4795" y1="689.96" x2="1136.4795" y2="501.9602">
		<stop  offset="0" style="stop-color:#FFAC94;stop-opacity:0"/>
		<stop  offset="1" style="stop-color:#FFAC94"/>
	</linearGradient>
	<path clip-path="url(#SVGID_2_)" fill="url(#SVGID_22_)" d="M1364.298,454.031c-9.931,1.837-20.003,3.721-29.076,8.157
		c-17.449,8.532-29.109,25.356-39.629,41.686c-21.325,33.1-41.958,67.913-73.155,91.936
		c-35.429,27.281-81.896,38.501-114.523,69.076c-9.975,9.347-18.418,20.312-29.047,28.907
		c-29.547,23.891-70.716,25.914-105.731,40.67c-43.275,18.238-75.435,55.106-105.985,90.772
		c16.217,10.156,36.22,11.612,55.321,12.722c218.269,12.68,437.06,16.358,655.63,11.023c2.391-0.058,5.043-0.228,6.702-1.948
		c1.615-1.675,1.731-4.247,1.753-6.573c0.604-65.958,1.207-131.915,1.81-197.872c0.607-66.429,1.454-138.213-28.062-199.483
		c-16.643-34.547-47.626-16.524-80.271-10.485C1441.455,439.755,1402.877,446.893,1364.298,454.031z"/>
</g>
</svg>
